<?xml version="1.0" encoding="UTF-8" standalone="no"?>
<!-- Created with Inkscape (http://www.inkscape.org/) -->

<svg
   width="128.21707mm"
   height="128.21707mm"
   viewBox="0 0 128.21707 128.21707"
   version="1.1"
   id="svg1"
   xml:space="preserve"
   xmlns="http://www.w3.org/2000/svg"
   xmlns:svg="http://www.w3.org/2000/svg"><defs
     id="defs1" /><g
     id="layer1"
     transform="translate(-42.376831,-88.37561)"><path
       style="fill:#000000;stroke-width:2.19852"
       d="m 68.299025,208.75432 c -3.338517,-1.64548 -4.400885,-3.82282 -4.676338,-9.58431 -0.312827,-6.54305 0.137848,-8.79849 2.236114,-11.18817 l 1.701147,-1.93749 0.160713,-40.94981 0.160711,-40.94981 1.61512,-2.74758 c 1.04733,-1.781694 2.580973,-3.315339 4.362675,-4.36267 l 2.747577,-1.615119 h 25.885286 25.88527 l 2.46418,1.411426 c 1.35531,0.776297 3.18764,2.454694 4.07184,3.729753 l 1.60765,2.31835 0.29086,17.73251 0.29084,17.7325 2.6176,0.76819 c 3.47478,1.01975 6.56834,3.67097 8.23689,7.05915 1.25982,2.5582 1.38264,3.67164 1.65187,14.97249 0.26583,11.15843 0.38083,12.22596 1.33674,12.40897 2.70942,0.51869 2.73509,0.28666 2.73509,-24.70667 v -23.50498 l -6.10774,-6.33625 c -3.84678,-3.99066 -6.10778,-6.79322 -6.10778,-7.57071 0,-1.63239 2.51269,-4.09006 4.18164,-4.09006 0.92196,0 3.38349,2.08282 8.07773,6.83487 5.78407,5.85536 6.84827,7.2261 7.42575,9.56466 0.8748,3.54254 0.93279,47.50419 0.0669,50.62235 -1.91885,6.9091 -10.71153,9.64762 -16.01768,4.98877 -1.1185,-0.98204 -2.35082,-2.33859 -2.7385,-3.01455 -0.46448,-0.80988 -0.80406,-5.5283 -0.99573,-13.83556 -0.28497,-12.35258 -0.31924,-12.63674 -1.70104,-14.10603 -2.93729,-3.12326 -2.95248,-3.03183 -2.95248,17.77126 v 19.27073 l 1.98758,2.20004 c 2.27025,2.51287 3.02434,6.22176 2.52635,12.42558 -0.38652,4.81526 -1.67447,7.15245 -4.69794,8.52513 -2.29625,1.04254 -4.23947,1.10487 -34.42663,1.10443 -28.296333,-4.2e-4 -32.213632,-0.10926 -33.902051,-0.94139 z m 55.475585,-74.24864 c 1.3794,-1.60432 1.40327,-1.82494 1.40327,-12.96908 0,-11.26121 -0.009,-11.34653 -1.42778,-12.76477 l -1.4278,-1.4278 H 102.49191 82.661509 l -1.427784,1.4278 c -1.421145,1.42116 -1.427696,1.48131 -1.409295,12.94263 0.01319,8.13805 0.226315,11.78311 0.727116,12.42961 1.699147,2.19344 2.579325,2.27718 22.427604,2.13379 l 19.39222,-0.14004 z"
       id="path1" /></g></svg>
